<?xml version="1.0" encoding="UTF-8" standalone="no"?><!DOCTYPE svg PUBLIC "-//W3C//DTD SVG 1.1//EN" "http://www.w3.org/Graphics/SVG/1.1/DTD/svg11.dtd"><svg width="100%" height="100%" viewBox="0 0 1000 1000" version="1.1" xmlns="http://www.w3.org/2000/svg" xmlns:xlink="http://www.w3.org/1999/xlink" xml:space="preserve" xmlns:serif="http://www.serif.com/" style="fill-rule:evenodd;clip-rule:evenodd;stroke-linejoin:round;stroke-miterlimit:2;"><g><path d="M483.133,521.81c-0,20.063 -3.703,37.5 -11.109,52.313c-7.407,14.812 -17.766,27.046 -31.079,36.703c-13.312,9.656 -29.156,16.828 -47.531,21.515c-18.375,4.688 -38.437,7.032 -60.187,7.032c-19.313,-0 -37.969,-1.125 -55.969,-3.375c-18,-2.25 -35.813,-6 -53.438,-11.25l0,-68.344c8.625,3 17.625,5.812 27,8.437c9.375,2.625 18.797,4.922 28.266,6.891c9.469,1.969 18.891,3.516 28.266,4.641c9.375,1.125 18.468,1.687 27.281,1.687c13.125,0 24.281,-1.125 33.469,-3.375c9.187,-2.25 16.687,-5.344 22.5,-9.281c5.812,-3.938 10.031,-8.625 12.656,-14.063c2.625,-5.437 3.937,-11.437 3.937,-18c0,-9 -2.578,-16.547 -7.734,-22.64c-5.156,-6.094 -11.953,-11.485 -20.391,-16.172c-8.437,-4.688 -18.046,-8.906 -28.828,-12.656c-10.781,-3.75 -21.75,-7.782 -32.906,-12.094c-11.156,-4.313 -22.125,-9.188 -32.906,-14.625c-10.781,-5.438 -20.391,-12.188 -28.828,-20.25c-8.438,-8.063 -15.235,-17.672 -20.391,-28.828c-5.156,-11.157 -7.734,-24.61 -7.734,-40.36c-0,-14.437 2.625,-28.125 7.875,-41.062c5.25,-12.938 13.5,-24.235 24.75,-33.891c11.25,-9.656 25.687,-17.344 43.312,-23.062c17.625,-5.719 38.906,-8.578 63.844,-8.578c7.312,-0 14.953,0.328 22.922,0.984c7.969,0.656 15.844,1.5 23.625,2.531c7.781,1.031 15.281,2.25 22.5,3.656c7.219,1.407 13.828,2.86 19.828,4.36l5.841,65.385c-6,-2.25 -18.404,-6.416 -25.529,-8.291c-7.125,-1.875 -14.484,-3.516 -22.078,-4.922c-7.593,-1.407 -15.234,-2.485 -22.922,-3.235c-7.687,-0.75 -15,-1.125 -21.937,-1.125c-12.188,0 -22.5,0.985 -30.938,2.953c-8.437,1.969 -15.375,4.688 -20.812,8.157c-5.438,3.468 -9.375,7.734 -11.813,12.797c-2.437,5.062 -3.656,10.687 -3.656,16.875c0,7.687 2.578,14.296 7.735,19.828c5.156,5.531 12,10.5 20.531,14.906c8.531,4.406 18.187,8.531 28.969,12.375c10.781,3.844 21.843,7.969 33.187,12.375c11.344,4.406 22.406,9.422 33.188,15.047c10.781,5.625 20.437,12.469 28.968,20.531c8.532,8.063 15.375,17.578 20.532,28.547c5.156,10.969 7.734,23.953 7.734,38.953Z" style="fill:#1fffc9;fill-rule:nonzero;"/><path d="M715.314,633.044l-81.281,0l-36.282,-113.343l-13.218,-46.125l-12.657,47.25l-35.718,112.218l-77.907,0l-2.187,-362.381l42.687,-5.212l8.719,235.687l2.25,64.406l16.594,-57.375l40.5,-130.781l43.594,0l42.75,138.656l13.781,48.938l1.125,-57.375l9.281,-242.156l55.598,11.721l-17.629,355.872Z" style="fill:#1fffc9;fill-rule:nonzero;"/><g><path d="M445.365,702.194l-3.404,-12.196l-21.555,0l-3.498,12.196l-11.533,-0l18.293,-61.781l16.261,-0l18.293,61.781l-12.857,-0Zm-14.039,-50.437l-8.131,28.74l16.166,0l-8.035,-28.74Z" style="fill:#1fffc9;fill-rule:nonzero;"/><path d="M506.626,683.522c-0,3.372 -0.623,6.303 -1.867,8.792c-1.245,2.49 -2.986,4.546 -5.224,6.169c-2.237,1.623 -4.9,2.828 -7.988,3.616c-3.088,0.788 -6.46,1.182 -10.116,1.182c-3.246,0 -6.381,-0.189 -9.406,-0.567c-3.026,-0.378 -6.019,-1.009 -8.982,-1.891l0,-11.486c1.45,0.504 2.963,0.976 4.538,1.418c1.576,0.441 3.159,0.827 4.751,1.158c1.591,0.331 3.175,0.591 4.75,0.78c1.576,0.189 3.104,0.283 4.586,0.283c2.205,0 4.08,-0.189 5.625,-0.567c1.544,-0.378 2.804,-0.898 3.781,-1.56c0.977,-0.662 1.686,-1.449 2.127,-2.363c0.442,-0.914 0.662,-1.923 0.662,-3.026c0,-1.512 -0.433,-2.781 -1.3,-3.805c-0.866,-1.024 -2.009,-1.93 -3.427,-2.718c-1.418,-0.788 -3.033,-1.497 -4.845,-2.127c-1.812,-0.63 -3.655,-1.308 -5.531,-2.033c-1.875,-0.724 -3.718,-1.544 -5.53,-2.458c-1.812,-0.913 -3.427,-2.048 -4.845,-3.403c-1.418,-1.355 -2.561,-2.97 -3.427,-4.845c-0.867,-1.875 -1.3,-4.136 -1.3,-6.783c-0,-2.427 0.441,-4.727 1.323,-6.902c0.883,-2.174 2.269,-4.073 4.16,-5.696c1.891,-1.622 4.317,-2.915 7.28,-3.876c2.962,-0.961 6.539,-1.441 10.73,-1.441c1.229,-0 2.513,0.055 3.852,0.165c1.34,0.11 2.663,0.252 3.971,0.425c1.308,0.174 2.568,0.379 3.781,0.615c1.214,0.236 2.325,0.481 3.333,0.733l-0,10.635c-1.008,-0.378 -2.111,-0.724 -3.309,-1.04c-1.197,-0.315 -2.434,-0.59 -3.711,-0.827c-1.276,-0.236 -2.56,-0.417 -3.852,-0.543c-1.292,-0.126 -2.521,-0.19 -3.687,-0.19c-2.048,0 -3.782,0.166 -5.2,0.497c-1.418,0.331 -2.584,0.788 -3.498,1.371c-0.913,0.583 -1.575,1.3 -1.985,2.15c-0.41,0.851 -0.614,1.797 -0.614,2.837c-0,1.292 0.433,2.402 1.299,3.332c0.867,0.93 2.017,1.765 3.451,2.505c1.434,0.741 3.057,1.434 4.869,2.08c1.812,0.646 3.671,1.34 5.578,2.08c1.906,0.741 3.766,1.584 5.578,2.529c1.812,0.945 3.434,2.096 4.868,3.451c1.434,1.355 2.584,2.954 3.451,4.798c0.867,1.843 1.3,4.025 1.3,6.546Z" style="fill:#1fffc9;fill-rule:nonzero;"/><path d="M560.891,660.077c0,3.214 -0.535,6.184 -1.607,8.91c-1.071,2.726 -2.663,5.081 -4.774,7.067c-2.111,1.985 -4.743,3.529 -7.894,4.632c-3.151,1.103 -6.807,1.655 -10.967,1.655l-5.908,-0l-0,19.853l-11.723,-0l-0,-61.781l18.104,-0c4.002,-0 7.54,0.433 10.612,1.299c3.073,0.867 5.657,2.135 7.752,3.806c2.096,1.67 3.687,3.726 4.775,6.168c1.087,2.443 1.63,5.239 1.63,8.391Zm-12.195,0.803c-0,-1.638 -0.26,-3.127 -0.78,-4.467c-0.52,-1.339 -1.308,-2.481 -2.364,-3.427c-1.055,-0.945 -2.387,-1.67 -3.994,-2.174c-1.607,-0.504 -3.514,-0.756 -5.72,-0.756l-6.097,-0l-0,22.642l6.476,-0c2.016,-0 3.797,-0.276 5.341,-0.828c1.544,-0.551 2.844,-1.347 3.9,-2.387c1.055,-1.04 1.859,-2.284 2.411,-3.734c0.551,-1.45 0.827,-3.073 0.827,-4.869Z" style="fill:#1fffc9;fill-rule:nonzero;"/></g></g></svg>